<?xml version="1.0" encoding="UTF-8" standalone="no"?>
<!DOCTYPE svg PUBLIC "-//W3C//DTD SVG 1.1//EN" "http://www.w3.org/Graphics/SVG/1.1/DTD/svg11.dtd">
<svg width="100%" height="100%" viewBox="0 0 71 81" version="1.1" xmlns="http://www.w3.org/2000/svg"
     xml:space="preserve" style="fill-rule:evenodd;clip-rule:evenodd;stroke-linejoin:round;stroke-miterlimit:2;">
    <g transform="matrix(1,0,0,1,-15,-2)">
        <g transform="matrix(1,0,0,1,0.117374,-1.79673)">
            <g id="point" transform="matrix(1.4,0,0,1.19767,-54.4284,-1.81735)">
                <path d="M75,6C88.798,6 100,18.922 100,34.838C100,55.867 77.693,71.961 75,71.961C72.307,71.961 50,54.342 50,34.838C50,18.922 61.202,6 75,6ZM75,14.075C84.934,14.075 93,23.378 93,34.838C93,46.298 84.934,55.601 75,55.601C65.066,55.601 57,46.298 57,34.838C57,23.378 65.066,14.075 75,14.075Z"/>
            </g>
            <g id="fork-spoon" transform="matrix(1,0,0,1,-0.117374,1.79673)">
                <path d="M50.087,47.973L45.903,43.654C45.903,43.654 42.163,47.277 39.679,49.683C38.487,50.838 38.456,52.741 39.611,53.934C39.612,53.934 39.612,53.934 39.612,53.934C40.767,55.127 42.67,55.157 43.862,54.002C46.346,51.596 50.087,47.973 50.087,47.973ZM51.388,38.892C51.755,35.379 53.42,30.056 53.731,29.75C55.549,27.962 58.564,24.997 59.979,23.606C60.484,23.109 61.133,22.782 61.834,22.673C62.651,22.546 63.635,22.392 63.635,22.392C63.635,22.392 63.464,23.373 63.322,24.187C63.217,24.793 62.949,25.357 62.55,25.82L60.047,28.298L57.982,30.328L57.989,30.335L57.84,30.482C57.688,30.632 57.602,30.837 57.601,31.051C57.6,31.264 57.684,31.47 57.834,31.622C57.834,31.622 57.835,31.622 57.835,31.622C57.985,31.774 58.19,31.86 58.403,31.861C58.617,31.862 58.823,31.778 58.975,31.628L61.978,28.655L63.461,27.196C63.967,26.699 64.616,26.373 65.317,26.263C66.134,26.136 67.117,25.983 67.117,25.983C67.117,25.983 66.946,26.963 66.805,27.778C66.683,28.476 66.346,29.118 65.841,29.614L63.474,31.942L61.568,33.751C61.382,33.927 61.274,34.17 61.267,34.427C61.26,34.683 61.356,34.932 61.532,35.118C61.533,35.118 61.533,35.119 61.534,35.119C61.71,35.305 61.953,35.413 62.21,35.42C62.466,35.427 62.715,35.332 62.901,35.155L63.077,34.988L63.083,34.993L64.494,33.644L67.685,30.616C68.149,30.256 68.7,30.021 69.286,29.937C70.104,29.82 71.089,29.68 71.089,29.68C71.089,29.68 70.906,30.658 70.754,31.471C70.623,32.168 70.277,32.807 69.764,33.297C68.331,34.668 65.275,37.591 63.433,39.354C63.196,39.58 59.487,40.954 56.272,41.681C55.582,41.836 54.915,41.962 54.31,42.041L60.812,49.049C61.885,50.205 61.818,52.012 60.661,53.085C60.661,53.086 60.661,53.086 60.66,53.086C59.504,54.159 57.697,54.092 56.624,52.935L46.373,41.887C43.719,41.754 40.253,39.797 37.382,36.55C33.293,31.924 31.949,26.421 34.384,24.268C36.819,22.116 42.117,24.123 46.206,28.748C48.908,31.804 50.411,35.244 50.418,37.846L51.388,38.892Z"/>
            </g>
        </g>
    </g>
</svg>
